<svg width="26" height="35" viewBox="0 0 26 35" fill="none" xmlns="http://www.w3.org/2000/svg">
<path d="M6.17237 14.4563C5.72393 14.6774 5.72395 14.6775 5.72399 14.6775L5.72416 14.6779L5.72481 14.6792L5.72735 14.6843L5.73733 14.7045L5.7763 14.7834C5.81048 14.8524 5.86077 14.9539 5.92527 15.0838C6.05427 15.3434 6.24013 15.7165 6.46773 16.1704C6.92288 17.0782 7.54522 18.3097 8.21373 19.6045C9.53984 22.1728 11.0788 25.052 11.8421 26.0952C12.7182 27.2924 13.8867 27.4439 14.787 27.2975C15.2285 27.2256 15.6114 27.0834 15.8812 26.9616C15.9285 26.9403 15.9726 26.9194 16.0134 26.8995L23.1304 32.5728C22.1056 33.1588 20.9957 33.6011 20.0812 33.9102C19.5363 34.0944 19.0663 34.2294 18.7335 34.3182C18.5672 34.3625 18.4354 34.3952 18.3459 34.4167C18.3012 34.4274 18.2671 34.4354 18.2446 34.4405L18.2306 34.4437C15.2028 34.8503 12.2772 32.9984 9.75846 30.4789C7.32873 28.0484 5.39151 25.1116 4.24564 23.3745C4.20998 23.3204 4.1751 23.2676 4.14098 23.2159C1.96609 19.9212 0.598192 13.9114 0.500893 7.01999C0.47781 5.38506 0.903966 4.18527 1.53159 3.29506C2.16299 2.39948 3.02014 1.78673 3.90142 1.36762C4.78362 0.948077 5.67527 0.7298 6.351 0.617127C6.5851 0.578092 6.79172 0.551988 6.96106 0.534559L7.23083 9.83581C6.60005 10.1819 6.1597 10.6214 5.86792 11.1067C5.53454 11.6612 5.41205 12.2469 5.39118 12.7671C5.37036 13.2859 5.4499 13.7521 5.53245 14.0854C5.57401 14.2532 5.61709 14.3903 5.6505 14.4872C5.66723 14.5358 5.68161 14.5744 5.69226 14.6021C5.6976 14.6159 5.70201 14.627 5.70532 14.6352L5.70946 14.6453L5.71087 14.6487L5.71141 14.65L5.71164 14.6505C5.71174 14.6507 5.71183 14.651 6.17237 14.4563ZM6.17237 14.4563L5.71183 14.651L5.7175 14.6644L5.72393 14.6774L6.17237 14.4563Z" stroke="#8A8A8A"/>
<path d="M10.9473 7.96179L10.9471 7.96193C10.8108 8.08093 10.4413 8.28059 10.0598 8.40559C9.93848 8.44532 9.83278 8.47176 9.74766 8.48632C9.74368 8.44677 9.73964 8.40289 9.73556 8.35464C9.71381 8.09761 9.69319 7.74391 9.67392 7.32255C9.63546 6.48132 9.60328 5.39045 9.57746 4.30748C9.55166 3.22526 9.53228 2.15396 9.51935 1.35301C9.51399 1.02053 9.50973 0.734726 9.50659 0.514173C9.74227 0.543204 10.0903 0.625973 10.5435 0.841702C11.0672 1.09101 11.2808 1.29717 11.3613 1.39928C11.3792 1.42197 11.3905 1.43955 11.3974 1.45153L11.4968 7.42769C11.477 7.44892 11.4551 7.47215 11.4314 7.49704C11.3091 7.62516 11.1393 7.79435 10.9473 7.96179ZM9.57111 8.49718C9.57164 8.49676 9.57748 8.49712 9.58703 8.49952C9.57535 8.49879 9.57057 8.49759 9.57111 8.49718Z" stroke="#8A8A8A"/>
<path d="M25.132 28.7383C25.1318 28.7382 25.1323 28.7386 25.1333 28.7395L25.1327 28.7389L25.132 28.7383ZM25.1038 28.716L25.1377 28.7438L25.1455 28.7514C25.1576 28.7633 25.1766 28.7829 25.1999 28.809C25.2472 28.8622 25.3079 28.938 25.3627 29.0286C25.4778 29.2191 25.5299 29.4099 25.482 29.5849C25.3852 29.9389 25.2139 30.502 25.0647 30.9826C25.0476 31.0379 25.0308 31.0919 25.0145 31.1442L17.8904 25.2987L19.3532 24.5006C19.3826 24.5018 19.4228 24.5054 19.4729 24.5141C19.6265 24.5409 19.8857 24.6183 20.2285 24.8419C20.5995 25.0847 21.8147 26.0489 22.969 26.9798C23.5391 27.4396 24.0846 27.8833 24.4876 28.2121C24.6891 28.3765 24.8549 28.5121 24.9703 28.6066L25.1038 28.716Z" stroke="#8A8A8A"/>
</svg>
